<mxfile host="app.diagrams.net" agent="Mozilla/5.0 (Windows NT 10.0; Win64; x64) AppleWebKit/537.36 (KHTML, like Gecko) Chrome/128.0.0.0 Safari/537.36" version="24.7.10">
  <diagram name="PÃ¡gina-1" id="0OD-BoRiWCjvvb7Hl5sw">
    <mxGraphModel grid="1" page="1" gridSize="10" guides="1" tooltips="1" connect="1" arrows="1" fold="1" pageScale="1" pageWidth="827" pageHeight="1169" math="0" shadow="0">
      <root>
        <mxCell id="0" />
        <mxCell id="1" parent="0" />
        <mxCell id="8-4peOkr449Zkv7JrzZU-1" value="" style="rounded=0;whiteSpace=wrap;html=1;" vertex="1" parent="1">
          <mxGeometry x="200" y="150" width="460" height="460" as="geometry" />
        </mxCell>
        <mxCell id="8-4peOkr449Zkv7JrzZU-2" value="Actor" style="shape=umlActor;verticalLabelPosition=bottom;verticalAlign=top;html=1;" vertex="1" parent="1">
          <mxGeometry x="100" y="350" width="30" height="60" as="geometry" />
        </mxCell>
        <mxCell id="8-4peOkr449Zkv7JrzZU-3" value="Eliminar evento" style="ellipse;whiteSpace=wrap;html=1;" vertex="1" parent="1">
          <mxGeometry x="240" y="345" width="140" height="70" as="geometry" />
        </mxCell>
        <mxCell id="8-4peOkr449Zkv7JrzZU-4" value="Notificar a los participantes" style="ellipse;whiteSpace=wrap;html=1;" vertex="1" parent="1">
          <mxGeometry x="480" y="200" width="140" height="70" as="geometry" />
        </mxCell>
        <mxCell id="8-4peOkr449Zkv7JrzZU-5" value="Eliminar del calendario" style="ellipse;whiteSpace=wrap;html=1;" vertex="1" parent="1">
          <mxGeometry x="480" y="345" width="140" height="70" as="geometry" />
        </mxCell>
        <mxCell id="8-4peOkr449Zkv7JrzZU-6" value="Eliminar de la lista de eventos disponibles" style="ellipse;whiteSpace=wrap;html=1;" vertex="1" parent="1">
          <mxGeometry x="480" y="480" width="140" height="70" as="geometry" />
        </mxCell>
        <mxCell id="8-4peOkr449Zkv7JrzZU-7" value="" style="endArrow=block;endFill=1;html=1;edgeStyle=orthogonalEdgeStyle;align=left;verticalAlign=top;rounded=0;exitX=0.5;exitY=0.5;exitDx=0;exitDy=0;exitPerimeter=0;entryX=0;entryY=0.5;entryDx=0;entryDy=0;" edge="1" parent="1" source="8-4peOkr449Zkv7JrzZU-2" target="8-4peOkr449Zkv7JrzZU-3">
          <mxGeometry x="-1" relative="1" as="geometry">
            <mxPoint x="190" y="450" as="sourcePoint" />
            <mxPoint x="220" y="380" as="targetPoint" />
          </mxGeometry>
        </mxCell>
        <mxCell id="8-4peOkr449Zkv7JrzZU-11" value="Include" style="endArrow=open;endSize=12;dashed=1;html=1;rounded=0;exitX=0;exitY=0.5;exitDx=0;exitDy=0;" edge="1" parent="1" source="8-4peOkr449Zkv7JrzZU-4" target="8-4peOkr449Zkv7JrzZU-3">
          <mxGeometry width="160" relative="1" as="geometry">
            <mxPoint x="380" y="270" as="sourcePoint" />
            <mxPoint x="540" y="270" as="targetPoint" />
          </mxGeometry>
        </mxCell>
        <mxCell id="8-4peOkr449Zkv7JrzZU-12" value="Include" style="endArrow=open;endSize=12;dashed=1;html=1;rounded=0;exitX=0;exitY=0.5;exitDx=0;exitDy=0;entryX=1;entryY=0.5;entryDx=0;entryDy=0;" edge="1" parent="1" source="8-4peOkr449Zkv7JrzZU-5" target="8-4peOkr449Zkv7JrzZU-3">
          <mxGeometry width="160" relative="1" as="geometry">
            <mxPoint x="490" y="245" as="sourcePoint" />
            <mxPoint x="384" y="358" as="targetPoint" />
          </mxGeometry>
        </mxCell>
        <mxCell id="8-4peOkr449Zkv7JrzZU-13" value="Include" style="endArrow=open;endSize=12;dashed=1;html=1;rounded=0;exitX=0;exitY=0.5;exitDx=0;exitDy=0;entryX=0.703;entryY=0.937;entryDx=0;entryDy=0;entryPerimeter=0;" edge="1" parent="1" source="8-4peOkr449Zkv7JrzZU-6" target="8-4peOkr449Zkv7JrzZU-3">
          <mxGeometry width="160" relative="1" as="geometry">
            <mxPoint x="490" y="390" as="sourcePoint" />
            <mxPoint x="424" y="390" as="targetPoint" />
          </mxGeometry>
        </mxCell>
      </root>
    </mxGraphModel>
  </diagram>
</mxfile>
